:version 1.10
:name ASF
:units
  mass 1
  length 1
  angle deg
:documentation
  ASF file generated by Kaydara
:root
  axis xyz
  order  tx ty tz rx ry rz
  position 0 0 0
  orientation 0 0 0
:bonedata
  begin
    id 1
    name lfemurDummy
    direction 0.61522 -0.761478 0.204097
    length 5.68318
    axis 0 -0 0 xyz
  end
  begin
    id 2
    name lfemur
    direction 0.34202 -0.939693 -5.84747e-008
    length 16.9147
    axis 0 -0 20 xyz
    dof rx ry rz
    limits( -inf , inf )
( -inf , inf )
( -inf , inf )

  end
  begin
    id 3
    name ltibia
    direction 0.34202 -0.939693 1.20839e-009
    length 18.0532
    axis 0 -0 20 xyz
    dof rz ry rx
    limits( -inf , inf )
( -inf , inf )
( -inf , inf )

  end
  begin
    id 4
    name lfoot
    direction 0.0841971 -0.23133 0.969225
    length 5.23822
    axis -90 7.62852e-016 20 xyz
    dof ry rx rz
    limits( -inf , inf )
( -inf , inf )
( -inf , inf )

  end
  begin
    id 5
    name ltoes
    direction 0 0 0
    length 0
    axis 0 0 0 xyz
    dof rz ry rx
    limits( -inf , inf )
( -inf , inf )
( -inf , inf )

  end
  begin
    id 6
    name rfemurDummy
    direction -0.625247 -0.75382 0.202044
    length 5.74091
    axis 0 -0 0 xyz
  end
  begin
    id 7
    name rfemur
    direction -0.34202 -0.939693 -1.47013e-008
    length 16.4922
    axis 0 -0 -20 xyz
    dof rx ry rz
    limits( -inf , inf )
( -inf , inf )
( -inf , inf )

  end
  begin
    id 8
    name rtibia
    direction -0.34202 -0.939693 -7.74345e-010
    length 18.2421
    axis 0 -0 -20 xyz
    dof rz ry rx
    limits( -inf , inf )
( -inf , inf )
( -inf , inf )

  end
  begin
    id 9
    name rfoot
    direction -0.124331 -0.341598 0.931586
    length 5.45787
    axis -90 -7.62852e-016 -20 xyz
    dof ry rx rz
    limits( -inf , inf )
( -inf , inf )
( -inf , inf )

  end
  begin
    id 10
    name rtoes
    direction 0 0 0
    length 0
    axis 0 0 0 xyz
    dof rz ry rx
    limits( -inf , inf )
( -inf , inf )
( -inf , inf )

  end
  begin
    id 11
    name lowerbackDummy
    direction 0 0 0
    length 0
    axis 0 -0 0 xyz
  end
  begin
    id 12
    name lowerback
    direction -0.0218484 0.994884 -0.0986304
    length 4.45607
    axis 0 -0 0 xyz
    dof rx ry rz
    limits( -inf , inf )
( -inf , inf )
( -inf , inf )

  end
  begin
    id 13
    name upperback
    direction -0.00973057 0.999717 -0.0217111
    length 4.47449
    axis 0 -0 0 xyz
    dof rx ry rz
    limits( -inf , inf )
( -inf , inf )
( -inf , inf )

  end
  begin
    id 14
    name thorax
    direction -0.000928171 0.999699 0.0245198
    length 4.50973
    axis 0 -0 0 xyz
    dof rx ry rz
    limits( -inf , inf )
( -inf , inf )
( -inf , inf )

  end
  begin
    id 15
    name rclavicle
    direction -0.9009 0.425937 -0.0834055
    length 7.28587
    axis 0 -0 0 xyz
    dof rx ry rz
    limits( -inf , inf )
( -inf , inf )
( -inf , inf )

  end
  begin
    id 16
    name rhumerus
    direction -1 -2.23604e-007 -1.42637e-007
    length 13.5704
    axis 180 30 90 xyz
    dof rx ry rz
    limits( -inf , inf )
( -inf , inf )
( -inf , inf )

  end
  begin
    id 17
    name rradius
    direction -1 5.68281e-008 -4.4952e-007
    length 8.06782
    axis 180 30 90 xyz
    dof rz ry rx
    limits( -inf , inf )
( -inf , inf )
( -inf , inf )

  end
  begin
    id 18
    name rwrist
    direction -1 1.51393e-007 1.38143e-007
    length 4.03391
    axis -90 -90 0 xyz
    dof rz rx ry
    limits( -inf , inf )
( -inf , inf )
( -inf , inf )

  end
  begin
    id 19
    name rthumb
    direction 0 0 0
    length 0
    axis 0 0 0 xyz
    dof ry rx rz
    limits( -inf , inf )
( -inf , inf )
( -inf , inf )

  end
  begin
    id 20
    name rhand
    direction -1 -3.34077e-007 -5.59631e-007
    length 1.29744
    axis -90 -90 0 xyz
    dof ry rx rz
    limits( -inf , inf )
( -inf , inf )
( -inf , inf )

  end
  begin
    id 21
    name rfingers
    direction 0 0 0
    length 0
    axis 0 0 0 xyz
    dof rz ry rx
    limits( -inf , inf )
( -inf , inf )
( -inf , inf )

  end
  begin
    id 22
    name lclavicle
    direction 0.940017 0.332249 -0.0773232
    length 8.29589
    axis 0 -0 0 xyz
    dof rx ry rz
    limits( -inf , inf )
( -inf , inf )
( -inf , inf )

  end
  begin
    id 23
    name lhumerus
    direction 1 7.41158e-008 -1.44768e-008
    length 12.0042
    axis 180 -30 -90 xyz
    dof rx ry rz
    limits( -inf , inf )
( -inf , inf )
( -inf , inf )

  end
  begin
    id 24
    name lradius
    direction 1 -1.32972e-007 3.10821e-007
    length 8.1902
    axis 180 -30 -90 xyz
    dof rz ry rx
    limits( -inf , inf )
( -inf , inf )
( -inf , inf )

  end
  begin
    id 25
    name lwrist
    direction 1 3.08957e-007 4.01394e-007
    length 4.09509
    axis -90 90 0 xyz
    dof rz rx ry
    limits( -inf , inf )
( -inf , inf )
( -inf , inf )

  end
  begin
    id 26
    name lthumb
    direction 0 0 0
    length 0
    axis 0 0 0 xyz
    dof ry rx rz
    limits( -inf , inf )
( -inf , inf )
( -inf , inf )

  end
  begin
    id 27
    name lhand
    direction 1 -1.64125e-007 -6.99514e-007
    length 1.37229
    axis -90 90 0 xyz
    dof ry rx rz
    limits( -inf , inf )
( -inf , inf )
( -inf , inf )

  end
  begin
    id 28
    name lfingers
    direction 0 0 0
    length 0
    axis 0 0 0 xyz
    dof rz ry rx
    limits( -inf , inf )
( -inf , inf )
( -inf , inf )

  end
  begin
    id 29
    name lowerneck
    direction -0.030798 0.998024 0.0547665
    length 3.93918
    axis 0 -0 0 xyz
    dof rx ry rz
    limits( -inf , inf )
( -inf , inf )
( -inf , inf )

  end
  begin
    id 30
    name upperneck
    direction 0.0531588 0.996611 -0.0627736
    length 3.95491
    axis 0 -0 0 xyz
    dof rx ry rz
    limits( -inf , inf )
( -inf , inf )
( -inf , inf )

  end
  begin
    id 31
    name head
    direction 0 0 0
    length 0
    axis 0 0 0 xyz
    dof rx ry rz
    limits( -inf , inf )
( -inf , inf )
( -inf , inf )

  end
:hierarchy
  begin
    root lfemurDummy rfemurDummy lowerbackDummy
    lfemurDummy lfemur
    lfemur ltibia
    ltibia lfoot
    lfoot ltoes
    rfemurDummy rfemur
    rfemur rtibia
    rtibia rfoot
    rfoot rtoes
    lowerbackDummy lowerback
    lowerback upperback
    upperback thorax
    thorax rclavicle lclavicle lowerneck
    rclavicle rhumerus
    rhumerus rradius
    rradius rwrist
    rwrist rthumb rhand
    rhand rfingers
    lclavicle lhumerus
    lhumerus lradius
    lradius lwrist
    lwrist lthumb lhand
    lhand lfingers
    lowerneck upperneck
    upperneck head
  end

:SAMPLES-PER-SECOND 30
:FULLY-SPECIFIED
:DEGREES
77
root  -8.188733529 37.56399981 9.465755252 19.33001709 -40.897995 -15.72497559
lowerback  8.789039612 9.248100281 -3.289000034
upperback  4.106029987 11.7258997 -6.038040161
thorax  0.07854519784 5.811900139 -5.432310104
lowerneck  4.882579803 -1.825139999 -9.963970184
upperneck  11.13759995 -4.304160118 18.32130051
head  2.978120089 -2.086390018 7.33137989
lclavicle  0 -9.442270133e-015 7.951389973e-016
lhumerus  -6.67828989 -38.69499969 82.72070313
lradius  2.1359949e-031 -2.811826777e-031 127.2220001
lwrist  -7.062250077e-031 -3.531125038e-031 6.69137001
lhand  -1.496451383e-031 -27.76390076 20.11240005
lfingers  90 7.125020027 -90
lthumb  89.89689403 5.08795885 91.16245106
rclavicle  0 -9.442270133e-015 7.951389973e-016
rhumerus  31.02009964 1.999040008 -54.45629883
rradius  1.247339389e-031 3.303481267e-031 69.31430054
rwrist  7.062250077e-031 -3.531125038e-031 11.13099957
rhand  -7.920061211e-032 -33.2840004 9.303460121
rfingers  -90 -7.125020027 -90
rthumb  -92.93752616 -24.25625642 -97.11982154
rfemur  8.452699661 9.329400063 27.33779907
rtibia  -0 0 37.0121994
rfoot  -0 13.21370029 9.918390274
rtoes  5.373923086 19.29304026 -105.8922705
lfemur  -55.52050018 -4.810890198 0.9417819977
ltibia  -0 0 54.89590073
lfoot  6.63118689e-032 -3.198120117 -2.949650049
ltoes  -4.250644065 -19.5611806 -102.515957
78
root  -8.187821906 37.62333187 9.540222198 19.00097656 -42.05299377 -16.4050293
lowerback  8.745969772 9.319959641 -3.810070038
upperback  4.386089802 11.79650021 -5.535610199
thorax  0.1860010028 5.823440075 -4.623600006
lowerneck  5.323890209 -1.522729993 -10.05990028
upperneck  10.70849991 -3.891309977 18.57089996
head  2.718250036 -1.917199969 7.439599991
lclavicle  0 -9.442270133e-015 7.951389973e-016
lhumerus  -6.531710148 -38.63370132 82.63619995
lradius  2.168096346e-031 -2.787149489e-031 127.8789978
lwrist  0 -1.765562519e-031 6.798339844
lhand  -1.496451383e-031 -27.76390076 20.11240005
lfingers  90 7.125020027 -90
lthumb  89.89689403 5.08795885 91.16245106
rclavicle  0 -9.442270133e-015 7.951389973e-016
rhumerus  28.23760033 3.100229979 -56.35269928
rradius  1.071077433e-031 3.364764058e-031 72.34259796
rwrist  3.531125038e-031 -3.531125038e-031 10.82139969
rhand  -7.920061211e-032 -33.2840004 9.303460121
rfingers  -90 -7.125020027 -90
rthumb  -92.93752616 -24.25625642 -97.11982154
rfemur  8.748709679 9.760299683 26.42760086
rtibia  -0 0 36.77640152
rfoot  -0 16.11030006 11.98799992
rtoes  5.373923086 19.29304026 -105.8922705
lfemur  -53.64550018 -4.133910179 0.8931379914
ltibia  -0 0 54.45920181
lfoot  4.425924859e-032 -4.223380089 -2.742150068
ltoes  -4.250644065 -19.5611806 -102.515957
79
root  -8.188066708 37.72155581 9.599444622 18.5869751 -43.24099731 -17.04901123
lowerback  8.890609741 9.3707304 -4.256040096
upperback  4.63808012 11.82369995 -5.168300152
thorax  0.2047609985 5.815350056 -4.027510166
lowerneck  5.703209877 -1.196210027 -9.924799919
upperneck  10.27950001 -3.425179958 18.72450066
head  2.456439972 -1.71329999 7.471519947
lclavicle  0 -9.442270133e-015 7.951389973e-016
lhumerus  -6.780280113 -38.60390091 82.54930115
lradius  2.202515006e-031 -2.760031102e-031 128.5899963
lwrist  -7.062250077e-031 -1.765562519e-031 6.865779877
lhand  -1.496451383e-031 -27.76390076 20.11240005
lfingers  90 7.125020027 -90
lthumb  89.89689403 5.08795885 91.16245106
rclavicle  0 -9.442270133e-015 7.951389973e-016
rhumerus  25.37050056 4.127799988 -58.08359909
rradius  8.956574358e-032 3.415646614e-031 75.30660248
rwrist  7.062250077e-031 -0 10.53030014
rhand  -7.920061211e-032 -33.2840004 9.303460121
rfingers  -90 -7.125020027 -90
rthumb  -92.93752616 -24.25625642 -97.11982154
rfemur  9.236280441 10.83580017 25.69099998
rtibia  -0 0 36.51679993
rfoot  -0 20.11610031 12.84780025
rtoes  5.373923086 19.29304026 -105.8922705
lfemur  -51.63909912 -3.426970005 0.8549969792
ltibia  -0 0 53.87670135
lfoot  4.428008571e-032 -4.573969841 -2.486399889
ltoes  -4.250644065 -19.5611806 -102.515957
80
root  -8.152622313 37.82644497 9.610844409 18.55102539 -44.16799927 -17.64501953
lowerback  9.090040207 9.287670135 -4.543960094
upperback  4.657360077 11.66919994 -4.997729778
thorax  0.0178612005 5.726439953 -3.728780031
lowerneck  5.802289963 -0.9520170093 -9.268610001
upperneck  10.33880043 -3.068429947 18.43860054
head  2.394059896 -1.526610017 7.263410091
lclavicle  0 -9.442270133e-015 7.951389973e-016
lhumerus  -7.255000114 -38.74739838 82.32510376
lradius  2.238644549e-031 -2.730808419e-031 129.3439941
lwrist  -1.412450015e-030 -0 7.023910046
lhand  -1.496451383e-031 -27.76390076 20.11240005
lfingers  90 7.125020027 -90
lthumb  89.89689403 5.08795885 91.16245106
rclavicle  0 -9.442270133e-015 7.951389973e-016
rhumerus  22.31970024 5.03783989 -60.02170181
rradius  7.273911679e-032 3.455393773e-031 78.11229706
rwrist  7.062250077e-031 -3.531125038e-031 10.55440044
rhand  -7.920061211e-032 -33.2840004 9.303460121
rfingers  -90 -7.125020027 -90
rthumb  -92.93752616 -24.25625642 -97.11982154
rfemur  8.867409706 11.18089962 25.03009987
rtibia  -0 0 36.25790024
rfoot  -0 25.32430077 13.97049999
rtoes  5.373923086 19.29304026 -105.8922705
lfemur  -50.30250168 -2.665440083 0.9197900295
ltibia  -0 0 53.20080185
lfoot  4.42654531e-032 -4.330770016 -2.330729961
ltoes  -4.250644065 -19.5611806 -102.515957
